<svg xmlns="http://www.w3.org/2000/svg" viewBox="891 468.765 138.865 155.191">
  <defs>
    <style>
      .cls-1 {
        fill: #f5f2ef;
      }
    </style>
  </defs>
  <g id="Group_407" data-name="Group 407" transform="translate(891 468.765)">
    <g id="Group_403" data-name="Group 403" transform="translate(63.766 80.092)">
      <path id="Path_337" data-name="Path 337" class="cls-1" d="M89.128,112.957V80.306L65.5,43.429H55.9V41.7H88.936v1.729H79.524l20.551,33.42,18.438-33.42H107.95V41.7h22.856v1.729h-9.8L101.228,78.961v34h11.716v1.729H77.6v-1.729Z" transform="translate(-55.9 -41.7)"/>
    </g>
    <g id="Group_404" data-name="Group 404" transform="translate(0 79.132)">
      <path id="Path_338" data-name="Path 338" class="cls-1" d="M83.2,42.16c-.192,2.3-.384,4.418-.576,6.146a48.689,48.689,0,0,0-.192,4.994,59.823,59.823,0,0,0,.384,6.53c.192,1.729.384,3.457.576,4.994l-1.344.192a9.364,9.364,0,0,1-.768-2.113,9.363,9.363,0,0,0-.576-1.344,31.641,31.641,0,0,0-1.729-4.225,19.573,19.573,0,0,0-1.537-2.881c-.576-.768-.96-1.537-1.537-2.3S74.75,50.8,74.174,50.035A20.754,20.754,0,0,0,58.04,42.544a23.058,23.058,0,0,0-10.948,2.5,18.68,18.68,0,0,0-6.914,7.491,50.08,50.08,0,0,0-3.457,12.1,100.959,100.959,0,0,0-1.152,16.134,95.164,95.164,0,0,0,1.152,15.942,30.7,30.7,0,0,0,3.841,10.756,17.163,17.163,0,0,0,6.722,6.146,22.617,22.617,0,0,0,9.988,1.921,27.387,27.387,0,0,0,9.6-1.729,29.148,29.148,0,0,0,8.259-4.8,35.492,35.492,0,0,0,2.689-2.689,17.406,17.406,0,0,0,2.113-3.073A34.524,34.524,0,0,0,82.049,99.4c.576-1.344,1.344-3.073,2.113-5.186l.96.192c-.192,1.921-.192,3.649-.384,4.8a16.587,16.587,0,0,0-.192,2.881v2.5A32.555,32.555,0,0,0,84.738,109c.192,1.344.192,2.881.384,4.61l-1.537.192a8.412,8.412,0,0,0-2.113-3.073,3.259,3.259,0,0,0-2.5-.768,6.824,6.824,0,0,0-1.921.384,23.073,23.073,0,0,0-2.881,1.537,40.522,40.522,0,0,1-8.835,4.033,30.28,30.28,0,0,1-9.027,1.344,27.613,27.613,0,0,1-12.869-3.073,36.788,36.788,0,0,1-10.756-8.067,44.078,44.078,0,0,1-7.3-11.908A40.777,40.777,0,0,1,22.7,79.806a38.294,38.294,0,0,1,2.881-14.789,43.891,43.891,0,0,1,7.491-12.292,39.771,39.771,0,0,1,11.14-8.451A29.386,29.386,0,0,1,57.656,41.2a24.15,24.15,0,0,1,6.338.96,54.4,54.4,0,0,1,8.067,3.265,10.263,10.263,0,0,0,2.689,1.152,9.911,9.911,0,0,0,2.113.384,3.632,3.632,0,0,0,2.689-1.344,7.057,7.057,0,0,0,1.729-3.073H83.2Z" transform="translate(-22.7 -41.2)"/>
    </g>
    <g id="Group_405" data-name="Group 405" transform="translate(63.574)">
      <path id="Path_339" data-name="Path 339" class="cls-1" d="M89.8,0V1.729H79.04V54.739c0,5.762,1.537,10.18,4.418,13.445q4.322,4.61,13.829,4.61c14.213,0,21.32-7.491,21.32-22.664V1.729h-12.1V0h24.585V1.729H120.143V52.434c0,7.3-2.113,12.869-6.146,16.71s-9.988,5.762-17.67,5.762c-10.372,0-17.862-2.113-22.472-6.146Q66.94,62.422,66.94,50.322V1.729H55.8V0Z" transform="translate(-55.8)"/>
    </g>
    <g id="Group_406" data-name="Group 406" transform="translate(0.768)">
      <path id="Path_340" data-name="Path 340" class="cls-1" d="M56.712,1.729H45.38V71.257h8.259a63.361,63.361,0,0,0,11.14-.96,22.575,22.575,0,0,0,8.451-3.649,21.321,21.321,0,0,0,5.762-7.107,39.523,39.523,0,0,0,3.457-11.332h1.344V73.178H23.1V71.449H33.28V1.729H23.292V0h33.42Z" transform="translate(-23.1)"/>
    </g>
  </g>
</svg>
