<svg xmlns="http://www.w3.org/2000/svg" viewBox="1025.658 2871.201 37.957 47.134">
  <defs>
    <style>
      .cls-1 {
        fill: #3399f1;
      }
    </style>
  </defs>
  <path id="Path_218" data-name="Path 218" class="cls-1" d="M15.64,30.921C14.393,36.859,12.6,42.366,8.727,47.171a6.051,6.051,0,0,1-.317-.861A29.15,29.15,0,0,1,9.2,32.349c.907-3.082,1.587-6.255,2.312-9.406a2.958,2.958,0,0,0-.068-1.473c-.861-2.833-.907-5.6.793-8.159a4.748,4.748,0,0,1,3.128-2.153c2.856-.5,4.918,1.383,4.556,4.284a38.6,38.6,0,0,1-1.088,4.669c-.431,1.632-1.043,3.218-1.337,4.873a3.978,3.978,0,0,0,3.808,4.646,7.616,7.616,0,0,0,6.527-2.7c3.332-3.6,4.442-10.72,2.4-15.185a10.819,10.819,0,0,0-8.114-6.3C17.34,4.494,12.9,5.264,9.2,8.687A11.562,11.562,0,0,0,7.39,23.623a2.5,2.5,0,0,1,.272,1.587,15.467,15.467,0,0,1-.612,2.448c-.249.861-.5.952-1.292.544a9.963,9.963,0,0,1-4.352-4.8C-1.812,16.778.613,8.437,6.415,4.086c6.845-5.122,17.406-5.44,24.455-.635a15.4,15.4,0,0,1,7,14.709A17.808,17.808,0,0,1,32.8,29.878C29.193,33.437,24.887,35,19.81,33.8A7.122,7.122,0,0,1,15.64,30.921Z" transform="translate(1025.686 2871.164)"/>
</svg>
