<svg xmlns="http://www.w3.org/2000/svg" viewBox="908.99 2872.982 44.34 44.411">
  <defs>
    <style>
      .cls-1 {
        fill: #3399f1;
      }
    </style>
  </defs>
  <g id="Group_257" data-name="Group 257" transform="translate(908.99 2872.982)">
    <path id="Path_215" data-name="Path 215" class="cls-1" d="M322.76,340.07h12.786a1.785,1.785,0,0,1,.023.328c0,6.569-.047,13.161-.023,19.73a8.7,8.7,0,0,1-6.5,8.235,5.653,5.653,0,0,1-1.408.188h-28.41a7.183,7.183,0,0,1-3.636-1.173,8.486,8.486,0,0,1-4.035-5.513,13.691,13.691,0,0,1-.211-3.12q-.035-8.868-.047-17.736c0-.962,0-1.009.962-1.009,3.871,0,7.718.023,11.589.023a1.529,1.529,0,0,1,.258.047c-.117.235-.211.446-.328.634a10.735,10.735,0,0,0-1.454,3.8c-.962,6.71,2.979,11.847,8.657,13.091a11.282,11.282,0,0,0,12.105-16.844c-.117-.188-.211-.375-.328-.563Z" transform="translate(-291.3 -324.141)"/>
    <path id="Path_216" data-name="Path 216" class="cls-1" d="M335.693,286.969H321.969a.919.919,0,0,1-.61-.211,11.153,11.153,0,0,0-7.672-3.12,11.027,11.027,0,0,0-7.554,2.768,2.13,2.13,0,0,1-1.6.563c-4.176-.023-8.375-.023-12.551-.023h-.516c-.023-.047-.07-.07-.07-.094.047-2.276-.023-4.528.141-6.78a8.086,8.086,0,0,1,2.886-5.443l.563-.493c.023-.023.047-.023.164-.047v9.29h1.76v-9.619c0-.7,0-.7.657-.915.141-.047.305-.07.563-.141.117,3.566.023,7.085.07,10.651h1.83V272.423h1.173v10.956h1.83V272.4h.516c5.325,0,10.651.023,16,.023,2.557,0,5.114.07,7.671.024a7.748,7.748,0,0,1,3.191.727,8.572,8.572,0,0,1,5.044,6.006,13.213,13.213,0,0,1,.258,2.886C335.716,283.708,335.693,285.3,335.693,286.969Zm-11.425-6.944h-.047c0,.774-.023,1.572,0,2.346s.375,1.243,1.15,1.267q2.5.07,5,0c.821-.023,1.173-.4,1.2-1.22.047-1.689.047-3.4.023-5.091a1.01,1.01,0,0,0-1.079-1.079c-1.76-.023-3.519-.023-5.255.024-.657.023-.915.258-.962.938C324.221,278.171,324.268,279.11,324.268,280.025Z" transform="translate(-291.376 -272.4)"/>
    <path id="Path_217" data-name="Path 217" class="cls-1" d="M365.931,339.9a8.716,8.716,0,0,1-17.431-.141,8.836,8.836,0,0,1,8.469-8.657A8.707,8.707,0,0,1,365.931,339.9Zm-8.844-6.452a6.394,6.394,0,1,0,6.569,6.522A6.41,6.41,0,0,0,357.086,333.446Z" transform="translate(-335.08 -317.328)"/>
  </g>
</svg>
