<svg xmlns="http://www.w3.org/2000/svg" viewBox="781.785 308.948 377.39 421.758">
  <defs>
    <style>
      .cls-1 {
        fill: #f5f2ef;
      }
    </style>
  </defs>
  <g id="Group_201" data-name="Group 201" transform="translate(781.785 308.948)">
    <g id="Group_197" data-name="Group 197" transform="translate(173.297 217.665)">
      <path id="Path_165" data-name="Path 165" class="cls-1" d="M146.2,235.354V146.618L82,46.4H55.9V41.7h89.78v4.7H120.1l55.852,90.824L226.065,46.4H197.356V41.7h62.115v4.7H232.851l-53.764,96.566v92.39h31.841v4.7H114.884v-4.7Z" transform="translate(-55.9 -41.7)"/>
    </g>
    <g id="Group_198" data-name="Group 198" transform="translate(0 215.055)">
      <path id="Path_166" data-name="Path 166" class="cls-1" d="M187.123,43.81c-.522,6.264-1.044,12.005-1.566,16.7a132.324,132.324,0,0,0-.522,13.571,162.583,162.583,0,0,0,1.044,17.747c.522,4.7,1.044,9.4,1.566,13.571l-3.654.522a25.448,25.448,0,0,1-2.088-5.742,25.445,25.445,0,0,0-1.566-3.654,85.992,85.992,0,0,0-4.7-11.484c-1.566-3.132-2.61-5.742-4.176-7.83s-2.61-4.176-4.176-6.264-3.132-3.654-4.7-5.742q-18.008-20.357-43.846-20.357c-12.005,0-21.923,2.61-29.753,6.786A50.768,50.768,0,0,0,70.2,72a136.1,136.1,0,0,0-9.4,32.885,274.374,274.374,0,0,0-3.132,43.846c0,16.7,1.044,31.319,3.132,43.324s5.742,21.4,10.44,29.231a46.644,46.644,0,0,0,18.269,16.7c7.308,3.654,16.7,5.22,27.143,5.22a74.429,74.429,0,0,0,26.1-4.7A79.213,79.213,0,0,0,165.2,225.458c2.61-2.61,5.22-4.7,7.308-7.308a47.305,47.305,0,0,0,5.742-8.352,93.83,93.83,0,0,0,5.742-10.44c1.566-3.654,3.654-8.352,5.742-14.093l2.61.522c-.522,5.22-.522,9.918-1.044,13.049a45.078,45.078,0,0,0-.522,7.83v6.786a88.472,88.472,0,0,0,.522,12.006c.522,3.654.522,7.83,1.044,12.528l-4.176.522c-2.088-4.176-3.654-6.786-5.742-8.352-1.566-1.566-3.654-2.088-6.786-2.088a18.547,18.547,0,0,0-5.22,1.044,62.7,62.7,0,0,0-7.83,4.176,110.126,110.126,0,0,1-24.011,10.962,82.293,82.293,0,0,1-24.533,3.654,75.044,75.044,0,0,1-34.973-8.352c-10.962-5.22-20.879-13.05-29.231-21.923-8.352-9.4-14.615-20.357-19.835-32.363A110.82,110.82,0,0,1,22.7,146.118a104.072,104.072,0,0,1,7.83-40.192C35.749,93.4,42.535,81.914,50.887,72.519A108.086,108.086,0,0,1,81.162,49.552,79.863,79.863,0,0,1,117.7,41.2a65.631,65.631,0,0,1,17.225,2.61c5.742,1.566,13.05,4.7,21.923,8.874a27.893,27.893,0,0,0,7.308,3.132,26.935,26.935,0,0,0,5.742,1.044c2.61,0,4.7-1.044,7.308-3.654,2.088-2.61,4.176-5.22,4.7-8.352h5.22Z" transform="translate(-22.7 -41.2)"/>
    </g>
    <g id="Group_199" data-name="Group 199" transform="translate(172.775)">
      <path id="Path_167" data-name="Path 167" class="cls-1" d="M148.19,0V4.7H118.959V148.764c0,15.659,4.176,27.665,12.006,36.538q11.744,12.527,37.582,12.527c38.626,0,57.94-20.357,57.94-61.593V4.7H193.6V0h66.813V4.7H230.663V142.5c0,19.835-5.742,34.973-16.7,45.412s-27.143,15.659-48.022,15.659c-28.187,0-48.544-5.742-61.071-16.7q-18.791-17.225-18.791-50.11V4.7H55.8V0Z" transform="translate(-55.8)"/>
    </g>
    <g id="Group_200" data-name="Group 200" transform="translate(2.088)">
      <path id="Path_168" data-name="Path 168" class="cls-1" d="M114.446,4.7h-30.8V193.654h22.445a172.2,172.2,0,0,0,30.275-2.61c8.874-2.088,16.7-5.22,22.967-9.918S170.82,169.643,175,161.813c4.176-8.352,7.308-18.269,9.4-30.8h3.654v67.857H23.1v-4.7H50.765V4.7H23.622V0h90.824Z" transform="translate(-23.1)"/>
    </g>
  </g>
</svg>
