<svg xmlns="http://www.w3.org/2000/svg" viewBox="808.509 2873.19 27.599 44.203">
  <defs>
    <style>
      .cls-1 {
        fill: #3399f1;
      }
    </style>
  </defs>
  <path id="Path_213" data-name="Path 213" class="cls-1" d="M68.343,11.03v8.283H57.354c0,.144-.02.246-.02.349q0,6.335.02,12.67a6.053,6.053,0,0,0,.308,2.009,3.993,3.993,0,0,0,2.522,2.214,9.085,9.085,0,0,0,7.832-1.066c.082-.041.164-.1.246-.144h.1c0,.1.021.226.021.328v5.864a.474.474,0,0,1-.349.513,23.737,23.737,0,0,1-8.3,2.112,15.238,15.238,0,0,1-7.278-1.169,10.5,10.5,0,0,1-4.346-3.383,7.28,7.28,0,0,1-1.292-3.69c-.082-1.046-.1-2.091-.123-3.137-.021-4.736,0-9.451,0-14.187,0-.513,0-.513-.513-.513H41.137c-.287,0-.369-.082-.349-.349.021-1.8.021-3.608,0-5.392a.636.636,0,0,1,.492-.7c1.107-.472,2.255-.9,3.3-1.476a10.21,10.21,0,0,0,3.711-3.875A16.461,16.461,0,0,0,50.2.164.922.922,0,0,1,50.24,0h7.094V11.03Z" transform="translate(767.724 2873.19)"/>
</svg>
