<svg xmlns="http://www.w3.org/2000/svg" viewBox="1136.362 2875.594 48.919 40.018">
  <defs>
    <style>
      .cls-1 {
        fill: #3399f1;
      }
    </style>
  </defs>
  <path id="Path_214" data-name="Path 214" class="cls-1" d="M47.631,298.024a10.522,10.522,0,0,1-4.156,5.444,22.569,22.569,0,0,0,5.444-1.337,11.438,11.438,0,0,1-1.142,1.482c-1.118,1.142-2.284,2.211-3.475,3.3a.845.845,0,0,0-.34.729,29.228,29.228,0,0,1-6.877,19.636,26.6,26.6,0,0,1-16.768,9.551A28.867,28.867,0,0,1,1.58,333.747,18.482,18.482,0,0,1,0,332.775a20.8,20.8,0,0,0,14.678-4.2,10.332,10.332,0,0,1-9.4-7.047,10.388,10.388,0,0,0,4.5-.194,10.182,10.182,0,0,1-6.489-4.569A9.6,9.6,0,0,1,1.8,311.366a10.9,10.9,0,0,0,4.472,1.191,10.013,10.013,0,0,1-4.35-7.29,9.739,9.739,0,0,1,1.288-6.124,28.812,28.812,0,0,0,20.754,10.523c-.073-.608-.146-1.142-.17-1.7a9.874,9.874,0,0,1,6.853-10.158,9.644,9.644,0,0,1,10.037,2.163,1.187,1.187,0,0,0,1.215.34,22.365,22.365,0,0,0,5.225-2.017A3.107,3.107,0,0,1,47.631,298.024Z" transform="translate(1136.362 2578.365)"/>
</svg>
